<svg width="962" height="467" viewBox="0 0 962 467" fill="none" xmlns="http://www.w3.org/2000/svg">
<path d="M851.581 2.16711C838.352 5.83536 830.857 11.687 826.337 21.6437L823.691 27.3207V247.327V467.421H892.588H961.484L961.264 245.318L960.933 23.3031L957.847 18.3248C953.988 12.0364 944.729 5.31131 936.351 2.60382C930.288 0.682373 928.855 0.595032 894.241 0.420349C859.738 0.245667 858.195 0.333008 851.581 2.16711Z" fill="#7F70FF" fill-opacity="0.26"/>
<path d="M686.891 44.3517C675.536 47.0591 666.056 54.3083 661.757 63.4789L659.442 68.3698V267.852V467.421H728.339H797.235V268.463C797.235 70.8153 797.235 69.4179 795.03 64.2649C790.731 54.483 782.794 48.1072 770.448 44.701C764.716 43.1289 761.409 42.9542 728.118 43.0416C700.119 43.0416 690.859 43.3909 686.891 44.3517Z" fill="#7F70FF" fill-opacity="0.26"/>
<path d="M520.877 86.9731C517.019 88.1085 513.051 89.5059 512.059 90.2046C503.681 95.1829 499.712 99.5499 496.405 107.585C494.091 113.087 494.091 113.611 494.091 290.298V467.421H563.538H632.986V290.472C632.986 115.096 632.986 113.437 630.781 107.498C626.923 97.3664 618.104 90.1172 605.317 86.7111C598.813 84.9643 596.168 84.8769 563.097 84.9643C528.925 84.9643 527.492 85.0516 520.877 86.9731Z" fill="#7F70FF" fill-opacity="0.26"/>
<path d="M356.408 147.761C343.951 151.342 336.014 157.892 332.046 167.761C329.841 173.176 329.841 175.622 329.841 320.342V467.421H398.738H467.634L467.414 318.246L467.083 169.159L464.217 164.268C460.138 157.368 454.296 152.652 445.808 149.333L438.422 146.451L400.391 146.276C364.896 146.014 361.92 146.189 356.408 147.761Z" fill="#7F70FF" fill-opacity="0.26"/>
<path d="M196.237 213.702C182.238 216.758 171.986 223.92 167.907 233.528C165.592 238.943 165.592 239.379 165.592 353.182V467.421H234.489H303.385L303.165 352.308L302.834 237.283L300.299 232.392C295.448 222.872 284.094 215.623 270.535 213.352C262.047 211.955 202.962 212.217 196.237 213.702Z" fill="#7F70FF" fill-opacity="0.26"/>
<path d="M29.4527 273.878C17.3269 276.935 7.84677 283.66 3.32716 292.569L0.791772 297.547L0.461069 382.44L0.240601 467.421H69.6883H139.136L138.915 382.44L138.585 297.547L136.049 292.656C133.183 287.066 126.459 280.516 120.396 277.459C111.577 273.005 107.278 272.655 69.2473 272.743C43.8934 272.743 32.6495 273.092 29.4527 273.878Z" fill="#7F70FF" fill-opacity="0.26"/>
</svg>
