<svg width="153" height="126" viewBox="0 0 153 126" fill="none" xmlns="http://www.w3.org/2000/svg">
<g style="mix-blend-mode:screen" clip-path="url(#clip0_1_22)">
<rect width="167" height="154" transform="translate(-14 -28)" fill="#7F70FF"/>
<path d="M-14 49V126H69.5H153V49V-28H69.5H-14V49ZM35.766 18.5593C37.3803 20.202 40.5533 23.436 42.8357 25.746C60.4263 43.7127 68.7763 52.0287 69.2773 52.0287C70.001 52.08 74.009 48.1273 93.1027 28.7233C100.061 21.6393 106.129 15.7873 106.574 15.736C107.075 15.6333 108.077 16.044 108.801 16.7113C110.137 17.8407 110.137 18.046 110.137 26.7213V35.5507L107.966 38.066C106.797 39.4007 104.403 41.8133 102.677 43.3533C100.952 44.8933 99.56 46.3307 99.56 46.5873C99.56 46.844 101.954 49.462 104.848 52.4393L110.137 57.8293V64.5027V71.1247L107.242 73.948L104.347 76.7713L99.894 76.6687L95.385 76.566L90.8203 72.3053C88.371 69.944 86.0887 67.9933 85.7547 67.9933C85.4763 67.9933 81.9137 71.2273 77.7943 75.18C73.7307 79.1327 69.9453 82.3667 69.4443 82.3667C68.9433 82.3667 65.158 79.1327 61.0943 75.18C57.0307 71.2273 53.4123 67.9933 53.134 67.9933C52.8 67.9933 50.5177 69.944 48.0683 72.3053L43.5593 76.566L39.106 76.6173C35.0423 76.6687 34.5413 76.566 33.0383 75.2827C29.0303 71.9973 28.8633 71.5867 28.8633 64.2973V57.6753L34.2073 52.2853C37.102 49.3593 39.44 46.69 39.3287 46.4333C39.2173 46.1767 37.3803 44.2773 35.265 42.224C28.418 35.7047 28.8633 36.7827 28.8633 26.7727C28.8633 18.4567 28.919 17.9433 30.088 16.814C30.756 16.1467 31.6467 15.6333 32.0363 15.6333C32.426 15.6333 34.096 16.968 35.766 18.5593Z" fill="black"/>
<path d="M31.257 17.2248C30.7003 17.7382 30.5333 20.4075 30.5333 26.9268V35.9615L33.929 38.9902C35.766 40.6842 38.271 43.1482 39.4957 44.4828L41.6667 46.8442L36.1557 52.1828L30.589 57.4702L30.5333 64.4002V71.3815L32.6487 73.2808C34.7083 75.1288 34.8753 75.1802 38.939 75.1802H43.114L47.7343 70.8168C50.295 68.4042 52.7443 66.4535 53.134 66.4535C53.5237 66.4535 57.3647 69.7388 61.7067 73.7428L69.5557 81.0835L77.2377 73.7942C81.524 69.7388 85.3093 66.4535 85.7547 66.4535C86.1443 66.4535 88.5937 68.4042 91.21 70.8168L95.9417 75.1802H99.9497C103.846 75.1802 104.125 75.0775 106.24 73.3322L108.467 71.4842V64.6055V57.7268L102.9 52.3882C97.6673 47.4088 96.7767 46.2282 97.7787 45.8175C98.0013 45.7148 100.506 43.4562 103.345 40.6842L108.467 35.7562V26.7728C108.467 19.5348 108.3 17.6868 107.632 17.1735C107.019 16.6602 106.518 16.9168 105.015 18.5082C97.4447 26.5162 69.8897 54.1335 69.4443 54.1335C69.166 54.1335 67.997 53.1582 66.828 51.9775C65.1023 50.1808 40.4977 25.2328 33.8733 18.5595C32.3147 17.0195 31.8137 16.7115 31.257 17.2248Z" fill="#7F70FF" stroke="black" stroke-width="0.133333"/>
</g>
<defs>
<clipPath id="clip0_1_22">
<rect width="167" height="154" fill="white" transform="translate(-14 -28)"/>
</clipPath>
</defs>
</svg>
