<svg width="87" height="75" viewBox="0 0 87 75" fill="none" xmlns="http://www.w3.org/2000/svg">
<path d="M1.78929 1.33023C1.18214 1.91439 1 4.95203 1 12.3709V22.6521L4.70357 26.0987C6.70714 28.0264 9.43929 30.8304 10.775 32.3492L13.1429 35.0364L7.13214 41.1117L1.06071 47.1285L1 55.0147V62.9593L3.30714 65.1207C5.55357 67.2237 5.73571 67.2821 10.1679 67.2821H14.7214L19.7607 62.3168C22.5536 59.5712 25.225 57.3514 25.65 57.3514C26.075 57.3514 30.2643 61.09 35 65.6465L43.5607 74L51.9393 65.7049C56.6143 61.09 60.7429 57.3514 61.2286 57.3514C61.6536 57.3514 64.325 59.5712 67.1786 62.3168L72.3393 67.2821H76.7107C80.9607 67.2821 81.2643 67.1653 83.5714 65.1792L86 63.0762V55.2484V47.4206L79.9286 41.3453C74.2214 35.679 73.25 34.3354 74.3429 33.8681C74.5857 33.7512 77.3179 31.1809 80.4143 28.0264L86 22.4185V12.1956C86 3.95896 85.8179 1.85597 85.0893 1.27181C84.4214 0.687647 83.875 0.979728 82.2357 2.79063C73.9786 11.9036 43.925 43.3315 43.4393 43.3315C43.1357 43.3315 41.8607 42.2216 40.5857 40.878C38.7036 38.8334 11.8679 10.4432 4.64286 2.84905C2.94286 1.09656 2.39643 0.746063 1.78929 1.33023Z" fill="#7F70FF" stroke="black" stroke-width="0.133333"/>
</svg>
