<svg width="123" height="124" viewBox="0 0 123 124" fill="none" xmlns="http://www.w3.org/2000/svg">
<g clip-path="url(#clip0_110_13)">
<path d="M92.2472 26.8287C92.2472 28.6415 94.047 30.4543 96.5629 30.4543C100.158 30.4543 101.237 29.0041 101.237 26.8287C101.237 26.4661 101.237 26.4661 101.237 26.1051C100.879 25.0174 99.7981 24.2923 98.7224 23.5672C98.3611 23.5672 97.6435 23.2046 96.9258 23.2046C94.4051 23.2062 92.2472 24.6549 92.2472 26.8287Z" fill="white"/>
<path d="M99.8013 14.8637C99.4384 12.6883 98.0015 10.8755 96.2049 10.8755C94.405 10.8755 93.3261 12.6883 93.689 14.8637C94.0518 17.0392 95.4856 18.852 97.2838 18.852C98.7224 18.852 100.159 17.0392 99.8013 14.8637Z" fill="white"/>
<path d="M83.6173 42.0563L89.7312 35.8926C93.3261 38.7932 97.6466 40.606 102.32 40.606C113.468 40.606 122.46 31.5402 122.46 20.3022C122.457 9.06259 113.468 0 102.319 0C91.173 0 82.1787 9.06421 82.1787 20.3038C82.1787 25.3798 83.9753 29.729 86.8541 32.9937L80.7385 39.159C81.8175 40.2451 82.8964 41.3344 83.6173 42.0563ZM105.556 13.776H109.51V9.78935H110.949V13.7776H114.906V15.2279H110.949V19.2177H109.51V15.2263H105.556V13.776ZM96.5645 20.6648C96.5645 20.3022 96.5645 19.9396 96.9273 19.5771C96.5645 19.5771 96.5645 19.5771 96.2097 19.5771C93.3309 19.5771 91.173 17.4017 91.173 14.8637C91.173 12.3257 94.0486 10.1503 96.9273 10.1503H103.398L101.959 11.238H99.8013C101.24 11.6022 101.959 13.415 101.959 15.2263C101.959 16.6765 101.24 17.7642 100.159 18.8519C99.0804 19.5771 98.7207 19.9396 98.7207 20.6648C98.7207 21.3899 99.8013 22.4776 100.519 22.8402C102.316 23.9279 102.677 25.3782 102.677 27.191C102.677 29.7274 100.519 31.9044 96.2048 31.9044C92.61 31.9044 89.3716 30.4541 89.3716 27.9161C89.3716 25.3782 92.2471 23.2028 95.8436 23.2028C96.2048 23.2028 96.5613 23.2028 96.9225 23.2028C96.9225 22.1167 96.5645 21.3915 96.5645 20.6648Z" fill="white"/>
<path d="M102.319 83.3909C97.645 83.3909 92.9697 85.2021 89.7297 88.1042L83.6173 81.939C82.8964 83.0267 81.8175 83.7486 81.0998 84.4737L87.2154 90.639C84.3382 94.2614 82.54 98.6171 82.54 103.33C82.54 114.568 91.5343 123.634 102.682 123.634C113.827 123.634 122.823 114.568 122.823 103.33C122.457 92.0909 113.468 83.3909 102.319 83.3909ZM96.5645 112.759H92.6084V100.067H96.5645V112.759ZM94.7663 98.2578C93.3277 98.2578 92.2504 97.1685 92.2504 96.0791C92.2504 94.9914 93.3293 93.9037 94.7663 93.9037C96.2032 93.9037 97.2822 94.9914 97.2822 96.0791C96.9225 97.531 96.2049 98.2578 94.7663 98.2578ZM112.748 112.759H108.073V106.234C108.073 104.423 107.355 103.334 105.914 103.334C104.835 103.334 104.117 104.059 103.756 104.784C103.756 105.151 103.756 105.511 103.756 105.873V112.764H99.4401C99.4401 112.764 99.4401 101.162 99.4401 100.072H103.756V101.885C104.117 101.162 105.556 99.7097 107.713 99.7097C110.589 99.7097 112.748 101.521 112.748 105.511V112.759Z" fill="white"/>
<path d="M39.0214 81.9419L32.9075 88.1072C29.311 85.205 24.9953 83.3938 20.3199 83.3938C9.17092 83.3938 0.17981 92.4612 0.17981 103.696C0.17981 114.936 9.17092 124.001 20.3199 124.001C31.4673 124.001 40.46 114.936 40.46 103.696C40.46 98.9826 38.6618 94.2708 35.7846 91.0061L41.8986 84.8408C40.8196 83.7515 39.7407 82.6622 39.0214 81.9419ZM28.953 100.431C28.953 106.595 24.2776 113.482 16.0058 113.482C13.4899 113.482 10.9707 112.757 9.17253 111.303C9.53217 111.303 9.89181 111.303 10.2515 111.303C12.4093 111.303 14.2075 110.58 16.0058 109.492C14.2075 109.492 12.4093 108.042 11.69 106.227C12.0497 106.227 12.4077 106.227 12.4077 106.227C12.769 106.227 13.127 106.227 13.4883 106.227C11.3288 105.862 9.89181 104.052 9.89181 101.877C10.6111 102.241 11.3304 102.6 12.0497 102.6C10.9707 101.877 9.89181 100.425 9.89181 98.9745C9.89181 98.2526 10.2515 97.5242 10.6111 96.7991C12.769 99.7013 16.0042 101.512 19.9603 101.512C19.9603 101.147 19.9603 100.789 19.9603 100.425C19.9603 97.8868 22.1197 95.7114 24.6356 95.7114C26.0742 95.7114 27.1531 96.4349 27.874 97.1617C28.953 96.7975 30.0319 96.4365 30.7512 96.074C30.3899 97.1617 29.6707 97.8852 28.5917 98.6087C29.6707 98.6087 30.3899 98.2445 31.1092 97.8852C30.3899 98.9729 29.6707 99.6964 28.9514 100.061C28.953 100.067 28.953 100.067 28.953 100.431Z" fill="white"/>
<path d="M20.3199 40.6077C24.9953 40.6077 29.669 38.7949 32.9075 35.8943L39.0214 42.058C39.7407 40.9703 40.8196 40.2468 41.5389 39.5216L35.4234 33.358C38.3005 29.7323 40.0987 25.3815 40.0987 20.6681C40.0987 9.42847 31.1076 0.364258 19.9586 0.364258C8.81127 0.364258 0.17981 9.42847 0.17981 20.6681C0.17981 31.5419 9.17092 40.6077 20.3199 40.6077ZM15.6445 17.0392H17.8024V14.8638C17.8024 11.9632 18.8813 10.1504 22.4778 10.1504H25.3549V13.776H23.5567C22.1181 13.776 22.1181 14.1386 22.1181 15.2263V17.0392H25.3549L24.9953 20.6648H21.7553V30.8168H17.4395V20.6648H15.2833V17.0392H15.6445Z" fill="white"/>
<path d="M79.6628 72.1495C79.3 71.4276 78.5823 71.0602 78.2242 71.0602C74.9874 69.9725 72.1119 69.2506 68.8751 68.1612C68.5154 68.1612 67.7962 67.4377 67.7962 65.9858C67.7962 65.2591 67.7962 64.8965 67.0785 64.8965C66.7156 64.8965 67.0785 64.8965 66.7156 64.5339C66.3576 63.0837 66.3576 62.3569 66.3576 61.9959C66.3576 61.635 66.7156 61.6318 66.7156 61.2708C67.7962 59.8205 68.1542 57.6467 68.1542 56.92C68.1542 56.92 68.5154 56.92 68.5154 56.5558C68.8751 55.8307 68.8751 55.8307 68.8751 54.7413C69.2379 54.0194 69.2379 52.9317 68.5154 52.9317C68.1542 53.2943 68.1542 52.9317 68.1542 52.2066V47.8558C68.1542 46.4055 67.0737 45.3194 66.3576 44.9569C65.2754 44.2301 64.919 43.8675 64.5577 43.8675C64.1965 43.505 64.1965 43.1424 64.5577 42.7798C64.9174 42.4189 65.2754 42.4189 65.2754 42.0547C65.2754 42.0547 65.2754 42.0547 64.9142 42.0547C64.5529 42.0547 62.3983 42.4205 61.3193 42.7798C59.5211 43.1424 57.7229 43.8675 56.2827 44.9569C55.2038 45.6804 54.4845 46.7681 54.4845 48.2216C54.4845 48.9435 54.4845 51.1205 54.4845 52.5724C54.4845 52.9382 54.4845 53.2975 54.1248 52.9382C53.0459 52.9382 53.7652 54.3885 53.7652 54.7478C53.7652 55.473 54.1248 55.8371 54.4829 56.5623C54.4829 56.9265 54.8441 56.9265 54.8441 56.9265C55.2038 58.0142 55.5634 60.1896 56.2827 61.2773C56.2827 61.2773 56.644 61.6415 56.644 62.0024C56.644 62.7276 56.644 63.8153 56.2827 64.5404C56.2827 64.5404 56.2827 64.9046 55.9231 64.9046C55.2038 64.9046 55.2038 65.2672 55.2038 65.9923C55.2038 67.08 54.4845 68.1693 54.1248 68.1693C52.3266 68.8912 46.9336 70.7057 45.1337 71.0683C44.0548 71.4341 43.6952 71.7934 43.3355 72.156L41.5373 76.5068C48.7286 76.5068 52.3266 80.8576 59.8792 82.3079H63.4756C71.0281 81.2202 76.4212 76.5068 81.4578 76.5068L79.6628 72.1495Z" fill="white"/>
</g>
<defs>
<clipPath id="clip0_110_13">
<rect width="123" height="124" fill="white"/>
</clipPath>
</defs>
</svg>
