<svg width="135" height="130" viewBox="0 0 135 130" fill="none" xmlns="http://www.w3.org/2000/svg">
<path d="M83.9795 0.96887C83.8593 1.02556 83.2371 1.53574 82.6008 2.1097C80.7129 3.81739 79.3696 4.78816 77.5878 5.73766C75.9757 6.59505 74.4556 7.16901 72.3981 7.67919L71.2739 7.95554H66.671C62.4005 7.95554 62.0187 7.96972 61.4035 8.09726C58.9147 8.60744 56.8997 10.8537 56.6734 13.3762C56.631 13.8793 56.6098 13.9431 56.4754 13.9644L56.3199 13.9856L56.4896 14.7792C56.8997 16.7208 56.8714 16.6074 57.034 16.5861C57.1542 16.572 57.232 16.657 57.4299 17.0113C58.2925 18.5702 59.9258 19.7323 61.6651 20.0228L62.2096 20.1149L62.2449 24.4727C62.2803 28.8164 62.2803 28.8234 62.4429 29.2273C62.7823 30.0706 63.5247 30.8146 64.3448 31.1334C64.9105 31.3531 66.0205 31.4027 66.6003 31.2326C67.9296 30.85 68.8417 29.8296 69.0326 28.5329C69.0679 28.2566 69.1033 26.3363 69.1033 24.0901V20.1432H70.3689C71.6133 20.1432 71.6557 20.1503 72.794 20.4338C74.1516 20.7739 75.4949 21.2628 76.7888 21.8793C78.9948 22.9351 80.5715 24.0405 82.8129 26.0883C83.8381 27.0236 84.0643 27.1583 84.5522 27.1583C85.0896 27.1512 85.6269 26.7048 85.7825 26.1308C85.8319 25.9395 85.8602 24.5223 85.8602 21.8722V17.897L86.341 17.6561C87.3309 17.153 88.1581 16.1114 88.4409 15.006C88.8864 13.2416 87.9602 11.1867 86.3693 10.4285L85.8673 10.1876V6.17699C85.8602 1.79792 85.8461 1.6562 85.4572 1.28065C85.0613 0.89801 84.4391 0.770466 83.9795 0.96887ZM83.1735 14.0211C83.1735 20.7597 83.1522 22.7579 83.0886 22.7225C83.0462 22.6942 82.6856 22.4249 82.2967 22.1273C81.0523 21.1778 79.6453 20.2921 78.3302 19.626C77.0999 19.0095 74.9293 18.1946 73.6496 17.8687L73.2748 17.7766V14.0069V10.2372L73.8617 10.0813C76.8313 9.2806 79.9281 7.74297 82.2402 5.9219C82.6927 5.5676 83.0886 5.27 83.124 5.27C83.1522 5.26291 83.1735 9.20266 83.1735 14.0211ZM70.5881 14.0494V17.4506H66.5438C63.2984 17.4506 62.4005 17.4294 62.0116 17.3443C60.8167 17.0892 59.8339 16.1893 59.4733 15.0202C59.3602 14.6375 59.3319 14.3966 59.3602 13.851C59.3814 13.2345 59.4097 13.107 59.6501 12.611C60.0814 11.6969 60.8874 11.0166 61.8278 10.7615C62.1389 10.6765 62.9732 10.6553 66.4023 10.6553L70.5881 10.6482V14.0494ZM86.2703 13.1566C86.6097 13.8226 86.4754 14.8572 86.0016 15.2894C85.8602 15.417 85.8602 15.4099 85.8602 14.014C85.8602 12.7456 85.8673 12.6251 85.9734 12.7102C86.0299 12.7598 86.1643 12.9653 86.2703 13.1566ZM66.4165 24.1751V28.207L66.2327 28.4266C66.07 28.625 66.0064 28.6463 65.667 28.6463C65.3489 28.6463 65.2499 28.618 65.1085 28.4692L64.9317 28.2991V24.2176V20.1432H65.6741H66.4165V24.1751Z" fill="white"/>
<path d="M93.1428 6.6092C92.7751 6.68006 92.7115 6.72257 90.6893 8.26021C88.8015 9.69155 88.6601 9.83327 88.5399 10.3647C88.3137 11.3496 89.4874 12.2566 90.3853 11.7961C90.5196 11.7323 91.4812 11.0308 92.5135 10.2443C94.1185 9.02548 94.4225 8.7633 94.5498 8.50113C94.875 7.83505 94.6276 7.07687 93.9912 6.75092C93.6589 6.58794 93.4397 6.54543 93.1428 6.6092Z" fill="white"/>
<path d="M90.2792 12.3132C90.2439 12.3274 90.0883 12.3557 89.9399 12.3841C89.6217 12.4337 89.1975 12.788 89.0702 13.1068C88.7591 13.8438 89.2116 14.7933 89.9469 14.9492C90.0883 14.9775 91.2903 15.0059 92.6125 15.0059C94.974 15.0059 95.0235 15.0059 95.3134 14.8429C96.0487 14.4532 96.2608 13.4611 95.7447 12.8092C95.6669 12.71 95.469 12.5541 95.3134 12.4691C95.0235 12.3203 94.9457 12.3132 92.6832 12.2991C91.4034 12.292 90.3217 12.2991 90.2792 12.3132Z" fill="white"/>
<path d="M54.1846 14.4816C54.0503 14.5242 53.5765 14.6517 53.1382 14.7722C52.6503 14.9068 52.3463 15.0202 52.3675 15.0698C52.3816 15.1123 52.5513 15.6792 52.7352 16.3311C52.9261 16.99 53.1099 17.5215 53.1594 17.5215C53.2018 17.5215 53.5058 17.4435 53.8311 17.3514C54.1634 17.2593 54.6018 17.1459 54.8068 17.0963C55.0048 17.0467 55.1745 16.9759 55.1745 16.9334C55.1815 16.7066 54.5664 14.4037 54.5028 14.4108C54.4674 14.4108 54.3189 14.4462 54.1846 14.4816Z" fill="white"/>
<path d="M89.2823 15.5299C88.5682 15.8629 88.2995 16.8266 88.7308 17.4856C88.8439 17.6628 92.4711 20.4546 92.8034 20.6246C93.2488 20.8443 94.0195 20.6884 94.3589 20.3058C94.5427 20.1074 94.6983 19.6822 94.6983 19.3846C94.6983 18.7823 94.5427 18.6123 92.5277 17.0817C91.4954 16.3023 90.555 15.6078 90.4348 15.5512C90.0954 15.3811 89.6146 15.3669 89.2823 15.5299Z" fill="white"/>
<path d="M49.5181 15.9057C48.9525 16.0971 48.4858 16.2671 48.4787 16.2742C48.4646 16.2884 49.3767 18.7472 49.405 18.7755C49.4262 18.8039 51.3564 18.1095 51.413 18.0598C51.4625 18.0032 50.6635 15.5373 50.5928 15.5444C50.5645 15.5444 50.0837 15.7073 49.5181 15.9057Z" fill="white"/>
<path d="M45.7354 17.3793C45.2334 17.6132 44.788 17.8116 44.7526 17.8257C44.7031 17.8399 45.6576 20.0507 45.8061 20.2633C45.8132 20.2845 47.7646 19.4484 47.8 19.4059C47.8565 19.3563 46.8313 16.9896 46.7465 16.9754C46.697 16.9683 46.2445 17.1526 45.7354 17.3793Z" fill="white"/>
<path d="M42.0446 19.1653C41.5285 19.4487 41.1043 19.7038 41.1043 19.7463C41.1043 19.7959 42.2567 21.9359 42.3416 22.0421C42.3487 22.0492 42.5608 21.9429 42.8082 21.8012C43.0557 21.6595 43.487 21.4328 43.7557 21.2981C44.0314 21.1564 44.2577 21.036 44.2718 21.0289C44.3213 20.9864 43.1193 18.6551 43.0486 18.6551C43.0133 18.6551 42.5537 18.8889 42.0446 19.1653Z" fill="white"/>
<path d="M94.3518 21.2132C93.8993 22.0068 93.7225 22.3753 93.772 22.432C93.8639 22.5454 94.6134 22.9422 94.6488 22.8997C94.7336 22.8005 95.9709 20.696 95.9709 20.6534C95.9709 20.6109 95.3063 20.207 95.0447 20.0866C95.0235 20.0795 94.7124 20.5826 94.3518 21.2132Z" fill="white"/>
<path d="M38.5236 21.2129C38.0216 21.5247 37.5973 21.794 37.5832 21.8081C37.569 21.8223 37.8872 22.3254 38.2832 22.9419C38.7498 23.6575 39.0326 24.0331 39.0963 24.0118C39.1458 23.9906 39.4993 23.778 39.8811 23.5371C40.2629 23.2962 40.6447 23.0552 40.7295 23.0056C40.8851 22.9064 40.878 22.8994 40.2063 21.7727C39.8316 21.1491 39.5134 20.639 39.4851 20.639C39.4639 20.639 39.0326 20.9011 38.5236 21.2129Z" fill="white"/>
<path d="M96.8901 22.7437C96.5225 23.3106 96.2114 23.8137 96.2043 23.8562C96.1901 23.9129 97.7881 25.0537 98.0285 25.16C98.078 25.1812 99.485 23.2681 99.5486 23.0909C99.584 22.9917 97.7881 21.7021 97.6184 21.7021C97.583 21.7021 97.2578 22.1697 96.8901 22.7437Z" fill="white"/>
<path d="M35.8368 23.0058C35.7237 23.0979 35.3136 23.4026 34.9388 23.686C34.557 23.9695 34.2459 24.2104 34.2459 24.2246C34.2459 24.2529 35.6317 26.074 35.7731 26.2299C35.8438 26.3078 36.0065 26.2228 36.7135 25.6984C37.1872 25.3512 37.569 25.0465 37.569 25.0111C37.569 24.9473 36.2822 23.0837 36.1267 22.9279C36.0701 22.8641 35.9994 22.8853 35.8368 23.0058Z" fill="white"/>
<path d="M100.355 25.1527C99.9446 25.6842 99.591 26.1589 99.5628 26.2014C99.5203 26.2652 100.51 27.1297 101.203 27.6399C101.316 27.7178 101.415 27.6186 102.186 26.7045L103.041 25.6771L102.115 24.926C101.606 24.515 101.168 24.182 101.139 24.182C101.118 24.182 100.765 24.6213 100.355 25.1527Z" fill="white"/>
<path d="M32.5773 25.5141C32.4571 25.6204 32.0753 25.9606 31.7218 26.2723L31.0784 26.8321L31.5804 27.399C31.8632 27.7108 32.2662 28.1572 32.4854 28.391L32.8743 28.8091L33.6874 28.1076C34.1328 27.7249 34.4863 27.3777 34.4722 27.3494C34.451 27.2714 32.9167 25.4008 32.846 25.3583C32.8177 25.3441 32.6975 25.4149 32.5773 25.5141Z" fill="white"/>
<path d="M103.572 27.8949C103.105 28.4192 102.723 28.8727 102.716 28.9081C102.709 28.9365 103.07 29.3049 103.522 29.723L104.349 30.4883L105.29 29.5459L106.23 28.6105L105.368 27.7744C104.894 27.3209 104.484 26.9453 104.463 26.9453C104.441 26.9453 104.038 27.3705 103.572 27.8949Z" fill="white"/>
<path d="M28.9572 28.88L28.1583 29.6807L29.0774 30.5806C29.5794 31.0766 30.0178 31.4805 30.0461 31.4805C30.0814 31.4805 30.4491 31.1403 30.8662 30.7223L31.6228 29.9641L30.7319 29.0429C30.237 28.5327 29.8198 28.1076 29.7986 28.0934C29.7703 28.0863 29.3956 28.4406 28.9572 28.88Z" fill="white"/>
<path d="M106.548 30.878C105.488 31.9054 105.488 31.6787 106.527 32.7841L107.192 33.4927L108.196 32.6211L109.193 31.7496L108.931 31.4519C108.005 30.4174 107.595 29.9923 107.531 29.9993C107.496 29.9993 107.05 30.3961 106.548 30.878Z" fill="white"/>
<path d="M26.2917 31.7072C25.9452 32.1111 25.6058 32.5008 25.5351 32.5858C25.4079 32.7346 25.4079 32.7417 26.3624 33.5283C26.8856 33.9605 27.3593 34.336 27.4159 34.3573C27.5078 34.3927 28.9007 32.8551 28.8582 32.763C28.8441 32.7346 28.4906 32.4016 28.0593 32.0119C27.6351 31.6292 27.1967 31.2395 27.0977 31.1474L26.9209 30.9844L26.2917 31.7072Z" fill="white"/>
<path d="M109.377 34.0173C108.811 34.4708 108.351 34.8605 108.344 34.8818C108.344 34.9031 108.514 35.1298 108.719 35.3849C108.917 35.64 109.235 36.051 109.426 36.2919L109.758 36.7241L110.769 35.973C111.321 35.555 111.802 35.1936 111.837 35.1581C111.894 35.1085 111.427 34.4566 110.706 33.5567L110.409 33.1812L109.377 34.0173Z" fill="white"/>
<path d="M23.6049 35.0375C23.2302 35.5406 22.9473 35.98 22.9756 36.0154C23.0958 36.1217 25.0402 37.5034 25.0826 37.5034C25.1109 37.5034 26.2139 36.0437 26.3482 35.8312C26.3765 35.7886 25.9594 35.4131 25.3372 34.9312L24.2907 34.1164L23.6049 35.0375Z" fill="white"/>
<path d="M111.95 37.3688C111.385 37.7586 110.897 38.1058 110.868 38.1341C110.84 38.1625 111.095 38.623 111.441 39.1545L112.07 40.1182L113.173 39.4308C113.781 39.0553 114.283 38.7152 114.283 38.6797C114.283 38.6089 113.308 37.0783 113.103 36.8161L112.975 36.6673L111.95 37.3688Z" fill="white"/>
<path d="M21.4767 38.1199C21.2575 38.4671 20.9888 38.8852 20.8828 39.0553C20.7697 39.2324 20.6919 39.3954 20.706 39.4237C20.7555 39.5017 22.9332 40.7842 22.9686 40.7559C22.9898 40.7346 23.9231 39.2749 24.0998 38.9844C24.1352 38.9419 22.0211 37.5035 21.9221 37.5035C21.8939 37.5035 21.6888 37.7798 21.4767 38.1199Z" fill="white"/>
<path d="M114.142 40.9895C113.541 41.3438 113.039 41.6414 113.025 41.6485C112.997 41.6768 114.085 43.668 114.128 43.668C114.184 43.668 116.362 42.5342 116.419 42.4705C116.475 42.4209 115.358 40.3376 115.28 40.3447C115.259 40.3447 114.743 40.6352 114.142 40.9895Z" fill="white"/>
<path d="M19.4263 41.5921C19.2424 41.9393 18.995 42.3857 18.8818 42.5983C18.7616 42.8109 18.698 42.9951 18.7334 43.0093C18.7687 43.0234 19.3061 43.2998 19.9283 43.6328L21.0525 44.228L21.5686 43.2643C21.8585 42.7329 22.0635 42.2794 22.0353 42.2511C21.9716 42.1873 19.8222 40.9756 19.7869 40.9756C19.7727 40.9756 19.6101 41.252 19.4263 41.5921Z" fill="white"/>
<path d="M37.8236 43.9872C37.4206 44.1289 37.2085 44.3061 37.0246 44.6604L36.862 44.965V67.6469V90.3288L37.0246 90.6052C37.1095 90.7611 37.3004 90.9807 37.4488 91.1012L37.7246 91.3208L49.0656 91.3421L60.4066 91.3563V94.2615V97.1667H57.2108C55.3159 97.1667 53.9018 97.195 53.7533 97.2375C53.619 97.273 53.3715 97.4218 53.2089 97.5635C52.4736 98.1871 52.6291 99.4342 53.4917 99.8522L53.8028 100.001H68.1346C83.7249 100.001 82.7351 100.029 83.1593 99.6255C83.8451 98.9878 83.6896 97.8044 82.8694 97.3651C82.5725 97.2021 82.5513 97.2021 79.2706 97.1809L75.9616 97.1596V94.2615V91.3563H87.1895H98.4244L98.7355 91.1933C98.9052 91.1012 99.1456 90.8886 99.2587 90.7256L99.4708 90.4209L99.4921 67.817C99.4991 51.4557 99.485 45.128 99.4284 44.9154C99.3294 44.5399 98.8557 44.0651 98.481 43.9589C98.2759 43.9022 89.9469 43.8809 68.1487 43.8809C42.5325 43.888 38.0569 43.9022 37.8236 43.9872ZM96.678 63.4734V80.2314H68.1841H39.6902V63.4734V46.7153H68.1841H96.678V63.4734ZM96.678 85.7868V88.5077H68.1841H39.6902V85.7868V83.0658H68.1841H96.678V85.7868ZM73.1193 94.2756L73.1334 97.1667H68.1841H63.2348V94.2615V91.3563L68.17 91.3704L73.0981 91.3917L73.1193 94.2756Z" fill="white"/>
<path d="M61.9974 49.521C60.5975 50.0949 60.3359 50.2296 60.1167 50.4705C59.9753 50.6264 59.841 50.839 59.8197 50.9452C59.7985 51.0586 59.8127 51.9373 59.8622 52.9009L59.9399 54.6582L59.445 55.1543L58.9501 55.6503L57.6774 55.5794C55.2876 55.4306 55.0825 55.4519 54.6937 55.877C54.6018 55.9691 54.227 56.7769 53.8523 57.6697C53.124 59.42 53.0463 59.7672 53.2867 60.2207C53.3503 60.3411 53.9725 60.9576 54.6795 61.5882L55.9522 62.7361V63.4943V64.2525L54.729 65.3437C53.2796 66.6405 53.1665 66.7822 53.1665 67.2853C53.1665 67.59 53.2725 67.923 53.824 69.2481C54.1917 70.1267 54.5593 70.9416 54.6512 71.062C54.7361 71.1825 54.927 71.3384 55.0755 71.4093C55.3159 71.5226 55.4573 71.5226 57.133 71.4447L58.9359 71.3597L59.445 71.8628L59.947 72.3659L59.8551 74.1161C59.7561 76.1001 59.7844 76.3198 60.2157 76.6457C60.5339 76.8866 63.6731 78.1763 63.9347 78.1763C64.4297 78.1763 64.6559 77.9991 65.8791 76.6528L67.0599 75.3419H67.7952H68.5235L69.7042 76.6457C70.9204 77.9991 71.1466 78.1763 71.6557 78.1763C71.8607 78.1763 74.3707 77.1701 75.1202 76.7945C75.4525 76.6245 75.6929 76.3198 75.7707 75.9796C75.7919 75.8804 75.7707 75.0372 75.7212 74.1019L75.6293 72.4013L76.1383 71.8769L76.6545 71.3597L78.4504 71.4447C80.2321 71.5297 80.2533 71.5297 80.5432 71.3809C80.7059 71.2959 80.8897 71.1471 80.9533 71.0479C81.1301 70.7857 82.3179 67.9159 82.3957 67.5758C82.4876 67.1861 82.3745 66.8247 82.0705 66.4846C81.929 66.3358 81.3139 65.7547 80.6917 65.202L79.5604 64.1888L79.5817 63.4802L79.6029 62.7716L80.8755 61.6166C82.2119 60.412 82.4169 60.1498 82.4169 59.6538C82.4169 59.3066 81.1442 56.1392 80.8897 55.8699C80.5079 55.4519 80.2958 55.4377 77.913 55.5794L76.6403 55.6503L76.1313 55.133L75.6222 54.6157L75.7141 52.8868C75.8202 50.924 75.799 50.7327 75.3818 50.3713C75.2404 50.2579 74.4697 49.8895 73.5576 49.5068C71.8112 48.777 71.4789 48.7061 71.0335 48.9754C70.9133 49.0533 70.2911 49.691 69.6547 50.3925L68.5023 51.6751H67.7881H67.0811L65.9286 50.3925C65.2923 49.691 64.6771 49.0533 64.5569 48.9754C64.1115 48.7061 63.7792 48.777 61.9974 49.521ZM64.8256 52.8017C65.4266 53.4678 65.9003 53.9284 66.0417 53.9851C66.367 54.1268 69.2234 54.1268 69.5487 53.9851C69.6972 53.9284 70.185 53.4395 70.8638 52.6813L71.9456 51.4767L72.5041 51.7105C73.3314 52.0719 73.3667 52.0932 73.3243 52.2632C73.2536 52.5396 73.1829 55.2605 73.2324 55.4731C73.3102 55.7849 75.4949 57.9603 75.8202 58.0524C75.9828 58.102 76.4989 58.0949 77.3403 58.0453C78.0403 58.0028 78.7544 57.9815 78.9241 57.9957L79.2281 58.017L79.5039 58.6689L79.7726 59.3278L78.6059 60.3695C77.814 61.0851 77.3969 61.5103 77.305 61.7016C77.1777 61.9638 77.1636 62.148 77.1636 63.5014C77.1636 64.7627 77.1848 65.0532 77.2838 65.2587C77.3545 65.4075 77.8706 65.939 78.5706 66.5696C79.214 67.1577 79.7372 67.6679 79.7231 67.7175C79.716 67.76 79.5887 68.0789 79.4473 68.4261L79.1857 69.0497L78.514 69.0071C78.1393 68.9859 77.3969 68.9434 76.8666 68.9221C75.9192 68.8725 75.8909 68.8796 75.5939 69.0567C75.2121 69.2835 73.4799 71.0408 73.3102 71.3738C73.197 71.5935 73.19 71.7565 73.2395 73.1099C73.2677 73.9247 73.296 74.6758 73.3031 74.768C73.3102 74.9239 73.2324 74.9735 72.6455 75.2144L71.9739 75.4836L71.7617 75.2711C71.6415 75.1577 71.1961 74.6688 70.7648 74.1798C70.3406 73.698 69.8669 73.2232 69.7184 73.124C69.3649 72.8902 68.8699 72.8406 67.3851 72.876C66.3104 72.8973 66.2114 72.9115 65.9428 73.0744C65.7801 73.1736 65.2004 73.7547 64.6489 74.3712C63.9347 75.1648 63.6095 75.4766 63.5247 75.4482C63.461 75.434 63.157 75.3065 62.8459 75.1719L62.2803 74.938L62.2873 74.6617C62.2873 74.5058 62.3156 73.7476 62.3439 72.9682L62.4005 71.551L62.1813 71.2321C61.8985 70.807 60.2228 69.163 59.9117 69.0001C59.6854 68.8796 59.5652 68.8796 58.0451 68.9575C57.1542 69.0001 56.4118 69.0213 56.3906 69.0001C56.3694 68.9788 56.228 68.6741 56.0795 68.3127L55.8108 67.6608L55.9664 67.512C56.0583 67.427 56.5956 66.9381 57.1683 66.4208C57.9885 65.6839 58.2289 65.4217 58.3208 65.1808C58.4198 64.9257 58.4339 64.6352 58.4127 63.3526C58.3915 61.8504 58.3915 61.8221 58.2148 61.5811C58.1158 61.4465 57.536 60.8867 56.9279 60.3269L55.8108 59.3208L55.9239 59.0586C55.9876 58.9169 56.1007 58.6263 56.1855 58.4208C56.2633 58.2083 56.3764 58.017 56.4401 57.9957C56.4966 57.9744 57.2249 57.9957 58.0592 58.0382C59.4874 58.1162 59.5935 58.1162 59.8692 57.9886C60.0531 57.9036 60.548 57.4572 61.2338 56.7698C62.1318 55.8487 62.3085 55.6361 62.351 55.4023C62.4005 55.1401 62.351 53.2552 62.2732 52.4545L62.2308 52.0648L62.9307 51.7743C63.5671 51.4979 63.6307 51.4909 63.7368 51.5971C63.7933 51.6609 64.2883 52.1994 64.8256 52.8017Z" fill="white"/>
<path d="M66.6498 56.8831C64.366 57.2941 62.3722 58.9168 61.552 61.0283C60.9369 62.5872 60.9581 64.5359 61.6015 66.0593C63.0297 69.4818 66.9397 71.0974 70.3476 69.6873C72.2001 68.9149 73.6283 67.3064 74.2364 65.3082C74.4132 64.7413 74.4273 64.5642 74.4344 63.5793C74.4344 62.3959 74.3566 61.9353 74.0101 61.0354C73.3243 59.2994 71.8254 57.8255 70.1143 57.202C68.9901 56.7981 67.7528 56.6847 66.6498 56.8831ZM68.8487 59.3703C69.5063 59.5403 70.1143 59.8733 70.6163 60.3268C71.2032 60.8654 71.5567 61.4039 71.8112 62.1621C72.4264 63.9406 71.7547 65.9389 70.185 67.0017C69.2517 67.6395 67.9932 67.8946 66.9185 67.6607C65.2923 67.3135 63.963 65.9885 63.6237 64.3871C63.157 62.1763 64.5287 59.9442 66.6993 59.3703C67.2225 59.2285 68.3043 59.2285 68.8487 59.3703Z" fill="white"/>
<path d="M116.065 44.738L114.92 45.2907L115.005 45.4962C115.584 46.8284 115.867 47.4236 115.91 47.4094C117.847 46.5945 118.314 46.3891 118.314 46.3607C118.314 46.2473 117.345 44.2066 117.288 44.1924C117.253 44.1853 116.702 44.4263 116.065 44.738Z" fill="white"/>
<path d="M17.4253 45.6664C17.1849 46.212 17.0152 46.6939 17.0435 46.7222C17.1425 46.8143 19.3344 47.7142 19.4051 47.693C19.4828 47.6646 20.3313 45.7869 20.2889 45.7373C20.2252 45.6735 18.0263 44.6602 17.9485 44.6602C17.9061 44.6602 17.6728 45.1137 17.4253 45.6664Z" fill="white"/>
<path d="M118.179 48.4581L117.38 48.7699H113.301H109.221L108.91 48.9258C108.74 49.0179 108.5 49.2092 108.387 49.358L108.168 49.6344L108.146 58.9594C108.132 65.4571 108.146 68.3694 108.203 68.5537C108.302 68.908 108.599 69.241 108.945 69.3969C109.207 69.5174 109.468 69.5315 112.077 69.5315H114.92V72.7485C114.92 74.853 114.948 76.0364 114.998 76.171C115.089 76.4119 115.386 76.7379 115.641 76.8725C115.924 77.0213 116.603 77 116.871 76.8371C116.984 76.7662 117.649 76.093 118.342 75.349C119.035 74.5979 119.607 73.9956 119.622 74.0098C119.629 74.024 119.593 74.3783 119.537 74.8034C119.487 75.2286 119.445 75.5829 119.459 75.5899C119.509 75.6395 122.004 75.9868 122.047 75.9513C122.096 75.9017 122.252 74.8388 122.315 74.1232C122.358 73.613 122.351 73.5705 122.231 73.5705C121.962 73.5634 120.272 73.365 120.237 73.3296C120.223 73.3083 120.548 72.9257 120.958 72.4792L121.714 71.6715L122.139 71.7069L122.556 71.7494V71.3313C122.563 70.7928 122.634 70.644 123.199 70.0346L123.673 69.5315H128.431C132.914 69.5315 133.211 69.5174 133.48 69.3969C133.819 69.241 134.038 69.0143 134.187 68.667C134.279 68.4332 134.293 67.342 134.293 59.1507C134.293 50.9594 134.279 49.8682 134.187 49.6344C134.038 49.2872 133.819 49.0604 133.48 48.9045C133.211 48.777 132.85 48.7699 126.225 48.7699H119.254L119.169 48.4865C119.127 48.3377 119.063 48.196 119.035 48.1747C119.007 48.1605 118.625 48.2881 118.179 48.4581ZM131.606 59.1507V66.8318L127.13 66.8531C122.775 66.8743 122.655 66.8814 122.436 67.016C122.308 67.094 121.184 68.2773 119.94 69.6378C118.688 71.0054 117.635 72.125 117.599 72.1391C117.564 72.1533 117.536 71.2959 117.536 70.0134C117.536 67.5475 117.515 67.4341 116.963 67.0727L116.659 66.8743L113.739 66.8531L110.819 66.8318V59.1507V51.4625H121.212H131.606V59.1507Z" fill="white"/>
<path d="M116.864 53.631C116.581 53.7798 116.412 53.9357 116.291 54.1695C116.15 54.4388 112.756 63.8488 112.693 64.1251C112.587 64.6353 112.94 65.2589 113.47 65.4998C113.831 65.6699 114.17 65.6699 114.531 65.4998C114.983 65.2872 115.167 65.0251 115.507 64.111L115.825 63.2607L117.444 63.2394L119.07 63.2252L119.374 64.0543C119.728 65.0321 119.912 65.3156 120.35 65.5069C121.262 65.9179 122.259 65.2164 122.188 64.2102C122.167 63.8701 122.174 63.863 122.273 64.0189C122.57 64.4865 123.242 65.0817 123.765 65.3439C124.719 65.8258 125.639 65.8824 126.664 65.5423C127.166 65.3723 127.166 65.3723 127.42 65.5069C127.625 65.6132 127.774 65.6344 128.099 65.6132C128.587 65.5707 128.94 65.3297 129.167 64.8833C129.301 64.6141 129.308 64.4653 129.308 59.5406C129.308 53.9002 129.343 54.2758 128.82 53.8152C128.205 53.2767 127.187 53.4822 126.791 54.2262C126.671 54.4458 126.657 54.6584 126.657 56.4511V58.421L126.501 58.3714C126.409 58.3431 125.999 58.3076 125.582 58.2864C124.988 58.258 124.755 58.2722 124.451 58.3714C123.369 58.7328 122.57 59.3918 122.117 60.2988C121.799 60.9365 121.686 61.4396 121.722 62.1269C121.736 62.4104 121.729 62.6371 121.714 62.6159C121.7 62.6017 121.015 60.731 120.187 58.4494C119.36 56.1748 118.625 54.2049 118.54 54.0703C118.236 53.5743 117.394 53.3546 116.864 53.631ZM117.776 59.6398C117.918 60.0224 118.031 60.3838 118.031 60.4405C118.031 60.5113 117.882 60.5326 117.423 60.5326C116.963 60.5326 116.822 60.5113 116.843 60.4405C117.147 59.5477 117.437 58.8462 117.472 58.8887C117.5 58.917 117.635 59.2571 117.776 59.6398ZM126.027 61.1207C126.692 61.5601 126.664 62.5308 125.978 62.9205C124.861 63.5654 123.8 62.0632 124.762 61.1987C124.974 61.0003 125.066 60.9719 125.462 60.9648C125.688 60.9578 125.858 61.0074 126.027 61.1207Z" fill="white"/>
<path d="M16.1668 48.7699L16.0466 49.1171L10.1003 49.1383C3.51068 49.1667 3.99147 49.1312 2.92383 49.6485C2.24507 49.9745 1.33298 50.9027 0.98653 51.6184C0.491598 52.6529 0.51281 52.0719 0.534021 63.1046L0.555232 73.039L0.710782 73.4996C1.17743 74.8601 2.18851 75.8875 3.57432 76.3906L4.09046 76.5819L8.7711 76.6032L13.4447 76.6244L13.48 76.7803C13.5012 76.8654 13.5436 77.085 13.5649 77.2693C13.5931 77.4606 13.6426 77.6094 13.678 77.6094C13.7558 77.6094 16.2446 77.1701 16.2658 77.1559C16.2728 77.1488 16.2516 77.0283 16.2234 76.8866L16.1597 76.6244L20.2747 76.6032C24.0574 76.5819 24.4109 76.5748 24.7362 76.4544C26.1573 75.9229 27.126 75.0301 27.6209 73.7759C27.727 73.5208 27.8401 73.0886 27.8825 72.8193C27.932 72.4863 27.9532 69.248 27.9391 62.5873C27.9179 53.6804 27.9037 52.8088 27.7906 52.4545C27.324 50.931 26.2987 49.8682 24.7715 49.3296C24.3261 49.1667 24.213 49.1596 21.2009 49.1242L18.09 49.0816L17.2556 48.7486C16.789 48.5644 16.386 48.4156 16.3506 48.4156C16.3223 48.4156 16.2375 48.5715 16.1668 48.7699ZM24.2412 52.001C24.6018 52.1994 24.8847 52.4829 25.0826 52.8442L25.2311 53.1277L25.2452 62.7645C25.2594 73.5846 25.2947 72.8335 24.7362 73.3933C24.1635 73.9743 25.0119 73.9318 14.1305 73.9105L4.44398 73.8893L4.16116 73.7334C3.7935 73.535 3.53189 73.2516 3.35513 72.8618C3.21372 72.543 3.20665 72.4509 3.20665 62.8637V53.1914L3.39048 52.823C3.63088 52.3341 4.08339 51.9939 4.65609 51.8664C4.73387 51.8451 9.11048 51.838 14.378 51.8451L23.9584 51.8522L24.2412 52.001Z" fill="white"/>
<path d="M4.59953 53.6382C4.57124 53.6595 4.55003 54.1413 4.55003 54.7011V55.7144H5.71666H6.88328V54.6515V53.5886H5.76615C5.15102 53.5886 4.62074 53.6099 4.59953 53.6382Z" fill="white"/>
<path d="M8.7216 54.6515V55.7144H9.88823H11.0619L11.0407 54.6656L11.0195 53.624L9.87409 53.6028L8.7216 53.5886V54.6515Z" fill="white"/>
<path d="M12.8225 54.6515V55.7144H13.9891H15.1628L15.1416 54.6656L15.1204 53.624L13.9749 53.6028L12.8225 53.5886V54.6515Z" fill="white"/>
<path d="M16.9728 53.6382C16.9445 53.6595 16.9233 54.1413 16.9233 54.7011V55.7144H18.0899H19.2566V54.6515V53.5886H18.1394C17.5243 53.5886 16.994 53.6099 16.9728 53.6382Z" fill="white"/>
<path d="M21.0949 54.6515V55.7144H22.2615H23.4352L23.414 54.6656L23.3928 53.624L22.2474 53.6028L21.0949 53.5886V54.6515Z" fill="white"/>
<path d="M10.7579 57.3366C10.4397 57.4429 10.1428 57.6909 9.99428 57.9815C9.85995 58.2507 9.85287 58.4137 9.85287 62.8707C9.85287 66.5837 9.87409 67.5261 9.95186 67.7104C10.171 68.2418 10.8852 68.6174 11.4084 68.4827C11.7478 68.3977 19.1364 64.1178 19.4758 63.8131C20.0131 63.3242 20.006 62.4031 19.4545 61.907C19.3697 61.822 17.5667 60.7591 15.4668 59.5474C12.1649 57.6413 11.5922 57.3366 11.2952 57.3083C11.1043 57.2941 10.8639 57.3083 10.7579 57.3366ZM14.2012 61.9283C15.6153 62.7432 15.8557 62.9061 15.7496 62.9628C15.6719 63.0054 14.9365 63.4305 14.1022 63.9123C13.275 64.3942 12.5679 64.7839 12.5326 64.7839C12.4972 64.7839 12.4689 63.9194 12.4689 62.8707C12.4689 61.8149 12.4831 60.9575 12.4972 60.9575C12.5184 60.9575 13.282 61.3898 14.2012 61.9283Z" fill="white"/>
<path d="M4.57832 70.2613C4.56418 70.3109 4.5571 70.7856 4.56418 71.31L4.58539 72.2595L5.73787 72.2808L6.88328 72.2949V71.232V70.1692H5.75201C4.88235 70.1692 4.6066 70.1904 4.57832 70.2613Z" fill="white"/>
<path d="M8.7216 71.232V72.2949L9.87409 72.2808L11.0195 72.2595V71.232V70.2046L9.87409 70.1833L8.7216 70.1692V71.232Z" fill="white"/>
<path d="M12.8225 71.232V72.2949H13.9891H15.1557V71.232V70.1692H13.9891H12.8225V71.232Z" fill="white"/>
<path d="M16.9233 71.232V72.2949H18.0899H19.2566V71.232V70.1692H18.0899H16.9233V71.232Z" fill="white"/>
<path d="M21.0949 71.232V72.2949L22.2474 72.2808L23.3928 72.2595V71.232V70.2046L22.2474 70.1833L21.0949 70.1692V71.232Z" fill="white"/>
<path d="M118.922 78.4598C118.809 79.0408 118.71 79.5369 118.71 79.5652C118.702 79.5935 119.275 79.7494 119.975 79.9124C121.099 80.1746 121.255 80.1958 121.297 80.0966C121.361 79.962 121.792 77.8788 121.764 77.8504C121.736 77.8221 119.353 77.3969 119.233 77.3969C119.155 77.3969 119.077 77.6591 118.922 78.4598Z" fill="white"/>
<path d="M15.1769 79.1544C14.1941 79.367 14.0244 79.4237 14.0244 79.5371C14.0244 79.6575 14.2861 80.8338 14.4487 81.4432L14.5194 81.6982L15.7779 81.3794C16.4637 81.2022 17.0435 81.0463 17.0577 81.0322C17.0718 81.0251 16.9799 80.5362 16.8456 79.948C16.6334 78.9985 16.5981 78.8851 16.4637 78.8922C16.386 78.8922 15.8062 79.0127 15.1769 79.1544Z" fill="white"/>
<path d="M118.137 81.7689C118.073 81.9956 117.932 82.4846 117.819 82.853C117.706 83.2215 117.621 83.5262 117.628 83.5333C117.698 83.6041 120.131 84.3198 120.166 84.2844C120.194 84.256 120.343 83.7742 120.505 83.2073C120.668 82.6404 120.809 82.1444 120.824 82.1019C120.845 82.0381 118.561 81.365 118.321 81.365C118.278 81.365 118.193 81.5492 118.137 81.7689Z" fill="white"/>
<path d="M16.2234 83.0658C15.587 83.2571 15.0497 83.4342 15.0355 83.4484C14.9719 83.5051 15.6719 85.6167 15.7496 85.6167C15.9547 85.6167 18.196 84.816 18.196 84.7451C18.1889 84.4971 17.5667 82.7469 17.4819 82.7327C17.4253 82.7257 16.8597 82.8745 16.2234 83.0658Z" fill="white"/>
<path d="M116.928 85.595C116.857 85.7863 116.68 86.254 116.532 86.6366C116.383 87.0264 116.284 87.3665 116.313 87.3878C116.376 87.4444 118.504 88.2877 118.653 88.3231C118.759 88.3443 119.615 86.1761 119.53 86.1052C119.473 86.0627 117.175 85.262 117.097 85.262C117.076 85.262 116.998 85.4108 116.928 85.595Z" fill="white"/>
<path d="M17.5809 86.8848C16.9092 87.1399 16.3577 87.3879 16.3577 87.4304C16.3577 87.5083 17.1284 89.4569 17.1779 89.5065C17.2203 89.5491 19.6101 88.5145 19.6101 88.4578C19.6101 88.4153 18.8324 86.4384 18.8111 86.4242C18.8041 86.4242 18.2455 86.6297 17.5809 86.8848Z" fill="white"/>
<path d="M115.393 89.386C115.302 89.5915 115.089 90.0592 114.92 90.4206C114.75 90.7819 114.63 91.0866 114.644 91.1008C114.708 91.1646 116.984 92.2841 117.006 92.2629C117.02 92.2487 117.105 92.0645 117.204 91.8519C117.303 91.6393 117.522 91.1575 117.698 90.7819L118.017 90.0946L116.843 89.5844C116.192 89.301 115.641 89.053 115.613 89.0388C115.591 89.0246 115.492 89.1805 115.393 89.386Z" fill="white"/>
<path d="M19.101 90.6335C18.4788 90.9311 17.9839 91.2075 17.9839 91.2642C17.9839 91.3421 18.8606 93.1774 18.9455 93.2624C18.9667 93.2837 21.1585 92.157 21.2575 92.0649C21.3282 92.0011 20.3808 90.0808 20.2818 90.0879C20.2464 90.0879 19.7091 90.3359 19.101 90.6335Z" fill="white"/>
<path d="M113.449 93.2551C113.287 93.5527 113.039 93.9991 112.905 94.24L112.65 94.6722L113.789 95.3596C114.418 95.7351 114.941 96.0327 114.955 96.0186C115.026 95.9477 116.129 93.9637 116.108 93.9424C116.051 93.8857 113.852 92.7024 113.803 92.7024C113.774 92.7024 113.619 92.9504 113.449 93.2551Z" fill="white"/>
<path d="M20.9888 94.2257C20.4091 94.5517 19.9 94.8351 19.8646 94.8493C19.8222 94.8635 20.8333 96.6704 20.9959 96.8758C21.0101 96.89 22.8272 95.7917 23.2655 95.5012C23.3079 95.4728 22.1837 93.6305 22.1201 93.6305C22.0848 93.6234 21.5757 93.8927 20.9888 94.2257Z" fill="white"/>
<path d="M111.102 97.0812C110.769 97.5772 110.494 98.0095 110.487 98.052C110.472 98.1087 112.162 99.37 112.544 99.5896C112.594 99.618 112.869 99.2849 113.294 98.6472C113.654 98.1087 113.944 97.6481 113.923 97.6339C113.88 97.5914 112.24 96.5144 111.95 96.3372L111.703 96.1884L111.102 97.0812Z" fill="white"/>
<path d="M23.1453 97.6343C22.5797 98.0098 22.0918 98.3429 22.0565 98.3712C21.9433 98.4775 23.2514 100.313 23.3999 100.256C23.4847 100.221 25.2806 98.931 25.422 98.8034C25.4715 98.7609 24.3261 97.0107 24.22 96.9682C24.1917 96.9611 23.711 97.2587 23.1453 97.6343Z" fill="white"/>
<path d="M108.669 100.419C108.295 100.886 107.991 101.297 107.998 101.326C107.998 101.382 109.942 103.012 110.006 103.012C110.034 103.012 110.543 102.403 111.151 101.623L111.519 101.156L110.529 100.398C109.978 99.9795 109.49 99.6181 109.44 99.6039C109.391 99.5826 109.058 99.944 108.669 100.419Z" fill="white"/>
<path d="M118.243 100.064C117.79 100.213 110.904 103.501 110.762 103.636C110.515 103.862 110.522 103.841 109.9 105.96C109.582 107.03 109.235 108.206 109.122 108.575L108.91 109.248L107.948 109.701C107.425 109.949 106.966 110.126 106.937 110.091C106.902 110.056 106.711 109.779 106.506 109.467C106.301 109.163 105.962 108.702 105.742 108.447L105.353 107.986L105.58 107.788C105.707 107.682 105.806 107.561 105.792 107.526C105.778 107.49 105.361 107.044 104.873 106.527L103.982 105.599L103.847 105.747C103.777 105.832 103.628 105.96 103.515 106.038L103.324 106.18L102.808 105.847C102.094 105.386 100.729 104.734 99.9304 104.472C94.4225 102.686 88.4409 104.777 85.2734 109.602C83.8522 111.77 83.0603 114.647 83.2017 117.127L83.2512 117.914L82.8482 118.034C82.5371 118.126 82.4593 118.176 82.4876 118.268C82.5018 118.332 82.6715 118.913 82.8624 119.544L83.2017 120.706L83.4139 120.656C83.5341 120.628 83.6755 120.599 83.725 120.599C83.7815 120.592 83.9017 120.798 84.0219 121.124C84.637 122.803 85.74 124.482 87.0693 125.758C88.8581 127.466 90.7954 128.514 93.2488 129.095C94.069 129.294 94.1609 129.301 95.9356 129.301C97.7103 129.301 97.8022 129.294 98.6224 129.095C99.8173 128.819 100.397 128.606 101.451 128.096C104.293 126.714 106.456 124.454 107.651 121.627C108.38 119.912 108.662 118.466 108.655 116.546C108.648 115.179 108.556 114.463 108.231 113.251C108.125 112.883 108.033 112.514 108.012 112.436C107.977 112.288 108.061 112.245 109.765 111.48C109.935 111.402 110.183 111.494 112.452 112.479C114.474 113.35 115.019 113.563 115.273 113.556C115.535 113.556 116.2 113.265 119.226 111.848C121.714 110.679 122.931 110.07 123.086 109.921C123.376 109.637 123.503 109.205 123.397 108.837C123.242 108.277 123.086 108.178 120.654 107.129C119.402 106.591 118.384 106.116 118.384 106.073C118.384 106.038 118.688 104.982 119.056 103.735C119.424 102.488 119.728 101.347 119.728 101.191C119.728 100.801 119.544 100.447 119.24 100.249C118.957 100.057 118.512 99.9794 118.243 100.064ZM116.327 104.642C116.129 105.308 115.931 105.882 115.888 105.932C115.797 106.024 111.872 107.88 111.837 107.845C111.83 107.838 111.978 107.264 112.184 106.576L112.551 105.329L114.602 104.373C115.726 103.848 116.659 103.423 116.666 103.43C116.673 103.437 116.518 103.983 116.327 104.642ZM98.4103 106.506C99.6123 106.817 100.333 107.122 101.38 107.746C102.426 108.383 103.727 109.616 104.434 110.644L104.802 111.175L103.946 111.579C103.211 111.919 103.077 111.969 103.027 111.87C102.858 111.572 102.052 110.644 101.62 110.261C99.0608 107.958 95.5114 107.434 92.2943 108.872C90.6893 109.595 89.0137 111.288 88.2359 112.975C86.8006 116.093 87.2885 119.579 89.5369 122.215C91.4176 124.433 94.5357 125.538 97.4204 125.014C100.637 124.426 103.211 122.087 104.123 118.92C104.484 117.673 104.54 116.206 104.279 114.916C104.208 114.605 104.151 114.293 104.151 114.222C104.137 114.13 104.328 114.009 104.908 113.74C105.332 113.549 105.707 113.379 105.742 113.372C105.954 113.329 106.294 115.285 106.294 116.567C106.294 119.466 105.29 121.889 103.254 123.958C101.847 125.389 100.093 126.353 98.0921 126.799C97.4416 126.941 97.1659 126.962 95.9003 126.962C94.5922 126.955 94.3731 126.941 93.666 126.771C89.5086 125.786 86.4259 122.52 85.7047 118.318C85.5067 117.127 85.5491 115.327 85.8107 114.279C86.44 111.784 87.7551 109.765 89.7419 108.263C90.8166 107.455 92.0045 106.888 93.3125 106.548C94.3872 106.272 94.6983 106.243 96.1831 106.265C97.4487 106.286 97.6325 106.307 98.4103 106.506ZM118.561 108.801C118.908 108.957 119.226 109.106 119.254 109.134C119.311 109.191 115.401 111.055 115.238 111.055C115.139 111.055 112.997 110.148 112.919 110.07C112.891 110.041 113.781 109.581 114.899 109.056L116.928 108.1L117.43 108.312C117.698 108.426 118.208 108.645 118.561 108.801ZM97.4063 110.629C98.1487 110.814 98.7355 111.069 99.3082 111.451C99.8385 111.806 100.85 112.777 100.85 112.925C100.85 112.975 100.475 113.195 100.022 113.407L99.188 113.804L98.8345 113.471C98.0921 112.769 97.2154 112.408 96.1477 112.351C95.6245 112.323 95.3205 112.344 94.9811 112.429C93.3549 112.84 92.1176 114.094 91.757 115.71C91.3469 117.559 92.3014 119.565 93.9983 120.401C95.3276 121.053 96.5437 121.053 97.8729 120.401C99.3153 119.692 100.206 118.19 100.213 116.49V115.944L101.04 115.554C101.641 115.271 101.882 115.186 101.917 115.249C102.08 115.519 102.122 117.071 101.981 117.758C101.663 119.31 100.687 120.798 99.4143 121.676C97.781 122.796 95.5962 123.058 93.7155 122.35C91.8277 121.634 90.258 119.735 89.8904 117.73C89.7773 117.078 89.7843 115.838 89.9187 115.278C90.5126 112.762 92.5347 110.878 95.0518 110.495C95.6669 110.403 96.7699 110.467 97.4063 110.629ZM96.6568 114.839C96.8194 114.924 96.7911 114.945 96.077 115.271C95.271 115.639 95.0377 115.845 94.9033 116.291C94.7902 116.667 94.8751 117.028 95.1437 117.34C95.3912 117.623 95.7164 117.786 96.0417 117.786C96.2679 117.786 96.3598 117.751 97.2649 117.333L97.8093 117.078L97.7032 117.347C97.5618 117.701 96.8901 118.325 96.5578 118.417C96.0487 118.559 95.5326 118.516 95.073 118.282C94.3872 117.935 94.0549 117.389 94.0407 116.589C94.0337 115.689 94.6134 114.973 95.5255 114.739C95.8437 114.661 96.4235 114.711 96.6568 114.839Z" fill="white"/>
<path d="M25.9311 100.589C25.62 100.83 25.1533 101.199 24.8917 101.404L24.4109 101.78L25.1321 102.658C25.521 103.147 25.8745 103.544 25.9028 103.544C25.9806 103.544 27.8825 101.914 27.8825 101.85C27.8825 101.808 26.5533 100.143 26.5179 100.143C26.5109 100.143 26.2493 100.341 25.9311 100.589Z" fill="white"/>
<path d="M27.8472 102.722C27.5149 102.871 27.1896 103.282 27.1401 103.629C27.1189 103.799 27.1048 109.468 27.1189 116.228C27.1401 127.806 27.1472 128.536 27.2674 128.748C27.331 128.876 27.5078 129.06 27.6492 129.159L27.9179 129.336H37.9791C49.1292 129.336 48.2596 129.372 48.6484 128.862L48.8464 128.607L48.8818 123.568L48.9171 118.53L49.1787 117.857C49.3201 117.489 49.4474 117.142 49.4615 117.085C49.4757 117.028 49.3626 116.943 49.1858 116.879L48.8818 116.766V112.918C48.8818 109.645 48.8676 109.028 48.7757 108.802C48.6414 108.483 43.0274 102.885 42.681 102.722C42.3557 102.58 28.1795 102.573 27.8472 102.722ZM41.0336 107.03C41.0336 108.192 41.0618 109.149 41.1043 109.298C41.1891 109.588 41.4578 109.942 41.6982 110.084C41.8042 110.141 42.5254 110.176 44.1799 110.205L46.5132 110.24L46.5344 118.623L46.5485 126.998H38.0286H29.5087V116.015V105.032H35.2711H41.0336V107.03ZM44.0385 107.299L44.6041 107.866H44.0173H43.4375V107.299C43.4375 106.988 43.4446 106.732 43.4587 106.732C43.4658 106.732 43.7274 106.988 44.0385 107.299Z" fill="white"/>
<path d="M31.8066 111.19C31.1137 111.615 30.9582 112.444 31.4672 112.982C31.8773 113.415 31.5097 113.393 38.0003 113.393H43.9537L44.2577 113.216C44.8516 112.862 45.0072 112.146 44.6041 111.537C44.2718 111.027 44.6112 111.055 37.9791 111.055C32.2874 111.055 32.0117 111.062 31.8066 111.19Z" fill="white"/>
<path d="M32.1107 115.086C31.5592 115.2 31.1774 115.66 31.1774 116.22C31.1844 116.624 31.34 116.943 31.6794 117.198L31.9339 117.396L37.8448 117.418C41.8467 117.432 43.8405 117.418 44.0102 117.361C44.385 117.255 44.7597 116.815 44.8163 116.412C44.8587 116.149 44.8375 116.022 44.7031 115.753C44.4981 115.356 44.2648 115.172 43.8547 115.086C43.4799 115.016 32.4854 115.016 32.1107 115.086Z" fill="white"/>
<path d="M31.8703 119.196C30.9087 119.636 30.9511 120.989 31.9339 121.365C32.2026 121.464 32.8601 121.471 38.1347 121.457L44.0385 121.436L44.2648 121.273C44.6607 120.989 44.8163 120.706 44.8163 120.259C44.8163 119.933 44.7809 119.813 44.6183 119.6C44.2011 119.055 44.7385 119.097 38.0993 119.083C32.4359 119.062 32.146 119.069 31.8703 119.196Z" fill="white"/>
<path d="M31.8773 123.2C31.1774 123.505 30.9511 124.49 31.4672 125.028C31.8773 125.461 31.5097 125.439 38.0003 125.439H43.9537L44.2577 125.262C44.5759 125.071 44.8516 124.624 44.8516 124.284C44.8516 123.852 44.4769 123.342 44.0526 123.179C43.7345 123.058 32.1531 123.08 31.8773 123.2Z" fill="white"/>
<path d="M105.99 103.544L105.233 104.38L106.195 105.287L107.163 106.201L107.962 105.351C108.408 104.89 108.768 104.486 108.768 104.458C108.768 104.408 106.881 102.736 106.803 102.715C106.775 102.715 106.414 103.083 105.99 103.544Z" fill="white"/>
<path d="M51.109 117.652C50.8898 118.233 50.3029 120.09 50.3312 120.111C50.3524 120.132 50.8473 120.295 51.4413 120.479C52.3958 120.777 52.5301 120.805 52.5725 120.699C52.6574 120.508 53.2796 118.276 53.2513 118.254C53.2442 118.24 52.8059 118.098 52.2968 117.935C51.7806 117.772 51.3069 117.624 51.2504 117.602C51.1938 117.581 51.1302 117.602 51.109 117.652Z" fill="white"/>
<path d="M79.5958 118.892L78.6059 119.14L78.8746 120.422C79.0231 121.131 79.1574 121.719 79.1645 121.733C79.1786 121.74 79.6807 121.634 80.2958 121.492C81.2927 121.258 81.4058 121.223 81.3988 121.088C81.3988 121.003 81.2644 120.429 81.1018 119.806C80.8897 119.005 80.7695 118.672 80.6988 118.665C80.6422 118.658 80.1473 118.764 79.5958 118.892Z" fill="white"/>
<path d="M54.927 118.786C54.8775 118.949 54.326 121.174 54.326 121.245C54.326 121.301 56.0512 121.733 56.4401 121.776C56.6027 121.79 56.6168 121.755 56.8714 120.515C57.0199 119.813 57.1259 119.218 57.1047 119.183C57.0906 119.154 57.0199 119.133 56.9562 119.133C56.8502 119.133 55.7118 118.885 55.1603 118.743C55.026 118.708 54.9553 118.722 54.927 118.786Z" fill="white"/>
<path d="M58.8228 119.657C58.7309 120.054 58.4057 122.109 58.4339 122.137C58.4834 122.187 59.6783 122.385 60.2369 122.435L60.7318 122.484L60.8945 121.188C60.9793 120.479 61.0359 119.884 61.0217 119.87C61.0005 119.848 60.5127 119.763 59.9258 119.671L58.8582 119.515L58.8228 119.657Z" fill="white"/>
<path d="M75.6081 119.65C75.1202 119.728 74.7172 119.799 74.7031 119.806C74.6748 119.827 75.0212 122.399 75.0566 122.435C75.0778 122.449 75.6081 122.378 76.2373 122.272C77.2767 122.109 77.3828 122.073 77.3545 121.953C77.3333 121.882 77.2272 121.301 77.1211 120.656L76.9161 119.487L76.704 119.494C76.5909 119.501 76.0959 119.572 75.6081 119.65Z" fill="white"/>
<path d="M72.0728 120.068C71.6628 120.103 71.189 120.146 71.0193 120.167L70.7153 120.21L70.7577 120.784C70.779 121.103 70.8214 121.691 70.8426 122.088L70.8921 122.817H71.3587C71.8678 122.817 73.1405 122.697 73.19 122.64C73.2607 122.576 72.9708 119.983 72.893 119.99C72.8506 119.997 72.4829 120.033 72.0728 120.068Z" fill="white"/>
<path d="M62.8035 120.061C62.754 120.231 62.549 122.654 62.5843 122.69C62.6126 122.718 63.1287 122.768 63.7297 122.803C64.557 122.86 64.8398 122.86 64.8751 122.796C64.9034 122.746 64.9317 122.534 64.9317 122.314C64.9317 122.094 64.9529 121.535 64.9741 121.067L65.0236 120.217L64.5004 120.167C63.2206 120.061 62.8106 120.04 62.8035 120.061Z" fill="white"/>
<path d="M66.7488 121.06C66.7205 121.499 66.6993 122.109 66.6993 122.406V122.959H67.8659H69.0325V121.613V120.266H67.9154H66.7912L66.7488 121.06Z" fill="white"/>
</svg>
