<svg width="216" height="39" viewBox="0 0 216 39" fill="none" xmlns="http://www.w3.org/2000/svg">
<g filter="url(#filter0_d_36_32)">
<g clip-path="url(#clip0_36_32)">
<path d="M21.7657 2.10558L25.4202 9.07011C25.6744 9.5545 26.1657 9.89014 26.7341 9.96769L34.9063 11.0846C36.3378 11.2804 36.9089 12.9344 35.8735 13.8835L29.9602 19.3046C29.5492 19.6815 29.3613 20.225 29.4586 20.7571L30.8543 28.412C31.099 29.7526 29.6026 30.7748 28.3225 30.1423L21.0134 26.5285C20.5052 26.2774 19.8975 26.2774 19.3893 26.5285L12.0802 30.1423C10.8001 30.7755 9.3037 29.7526 9.54837 28.412L10.9441 20.7571C11.0414 20.225 10.8535 19.6815 10.4426 19.3046L4.52923 13.8835C3.49378 12.9338 4.0649 11.2797 5.49643 11.0846L13.6686 9.96769C14.237 9.89014 14.7284 9.5545 14.9825 9.07011L18.637 2.10558C19.2764 0.885706 21.1256 0.885706 21.7657 2.10558Z" fill="#ED8A19"/>
</g>
<g clip-path="url(#clip1_36_32)">
<path d="M197.364 1.58019L201.018 8.54472C201.272 9.02911 201.764 9.36475 202.332 9.4423L210.504 10.5592C211.936 10.755 212.507 12.409 211.472 13.3581L205.558 18.7792C205.147 19.1561 204.959 19.6997 205.057 20.2317L206.452 27.8866C206.697 29.2273 205.201 30.2494 203.92 29.6169L196.611 26.0031C196.103 25.752 195.496 25.752 194.987 26.0031L187.678 29.6169C186.398 30.2501 184.902 29.2273 185.146 27.8866L186.542 20.2317C186.639 19.6997 186.452 19.1561 186.041 18.7792L180.127 13.3581C179.092 12.4084 179.663 10.7543 181.094 10.5592L189.267 9.4423C189.835 9.36475 190.326 9.02911 190.581 8.54472L194.235 1.58019C194.874 0.360315 196.724 0.360315 197.364 1.58019Z" fill="#ED8A19"/>
</g>
<g clip-path="url(#clip2_36_32)">
<path d="M153.464 2.10558L157.119 9.07011C157.373 9.5545 157.864 9.89014 158.433 9.96769L166.605 11.0846C168.036 11.2804 168.607 12.9344 167.572 13.8835L161.659 19.3046C161.248 19.6815 161.06 20.225 161.157 20.7571L162.553 28.412C162.798 29.7526 161.301 30.7748 160.021 30.1423L152.712 26.5285C152.204 26.2774 151.596 26.2774 151.088 26.5285L143.779 30.1423C142.499 30.7755 141.002 29.7526 141.247 28.412L142.643 20.7571C142.74 20.225 142.552 19.6815 142.141 19.3046L136.228 13.8835C135.192 12.9338 135.763 11.2797 137.195 11.0846L145.367 9.96769C145.935 9.89014 146.427 9.5545 146.681 9.07011L150.336 2.10558C150.975 0.885706 152.824 0.885706 153.464 2.10558Z" fill="#ED8A19"/>
</g>
<g clip-path="url(#clip3_36_32)">
<path d="M109.565 2.10558L113.219 9.07011C113.473 9.5545 113.965 9.89014 114.533 9.96769L122.705 11.0846C124.137 11.2804 124.708 12.9344 123.672 13.8835L117.759 19.3046C117.348 19.6815 117.16 20.225 117.258 20.7571L118.653 28.412C118.898 29.7526 117.402 30.7748 116.121 30.1423L108.812 26.5285C108.304 26.2774 107.697 26.2774 107.188 26.5285L99.8793 30.1423C98.5991 30.7755 97.1027 29.7526 97.3474 28.412L98.7431 20.7571C98.8404 20.225 98.6525 19.6815 98.2416 19.3046L92.3282 13.8835C91.2928 12.9338 91.8639 11.2797 93.2954 11.0846L101.468 9.96769C102.036 9.89014 102.527 9.5545 102.782 9.07011L106.436 2.10558C107.075 0.885706 108.925 0.885706 109.565 2.10558Z" fill="#ED8A19"/>
</g>
<g clip-path="url(#clip4_36_32)">
<path d="M65.6652 2.10558L69.3197 9.07011C69.5738 9.5545 70.0652 9.89014 70.6336 9.96769L78.8058 11.0846C80.2373 11.2804 80.8084 12.9344 79.773 13.8835L73.8596 19.3046C73.4487 19.6815 73.2608 20.225 73.3581 20.7571L74.7538 28.412C74.9985 29.7526 73.5021 30.7748 72.222 30.1423L64.9129 26.5285C64.4046 26.2774 63.797 26.2774 63.2888 26.5285L55.9797 30.1423C54.6996 30.7755 53.2032 29.7526 53.4478 28.412L54.8436 20.7571C54.9409 20.225 54.753 19.6815 54.342 19.3046L48.4287 13.8835C47.3933 12.9338 47.9644 11.2797 49.3959 11.0846L57.5681 9.96769C58.1365 9.89014 58.6278 9.5545 58.882 9.07011L62.5365 2.10558C63.1759 0.885706 65.0251 0.885706 65.6652 2.10558Z" fill="#ED8A19"/>
</g>
</g>
<defs>
<filter id="filter0_d_36_32" x="0" y="0" width="216" height="39" filterUnits="userSpaceOnUse" color-interpolation-filters="sRGB">
<feFlood flood-opacity="0" result="BackgroundImageFix"/>
<feColorMatrix in="SourceAlpha" type="matrix" values="0 0 0 0 0 0 0 0 0 0 0 0 0 0 0 0 0 0 127 0" result="hardAlpha"/>
<feOffset dy="4"/>
<feGaussianBlur stdDeviation="2"/>
<feComposite in2="hardAlpha" operator="out"/>
<feColorMatrix type="matrix" values="0 0 0 0 0 0 0 0 0 0 0 0 0 0 0 0 0 0 0.25 0"/>
<feBlend mode="normal" in2="BackgroundImageFix" result="effect1_dropShadow_36_32"/>
<feBlend mode="normal" in="SourceGraphic" in2="effect1_dropShadow_36_32" result="shape"/>
</filter>
<clipPath id="clip0_36_32">
<rect width="32.402" height="30.4746" fill="white" transform="translate(4 0.525391)"/>
</clipPath>
<clipPath id="clip1_36_32">
<rect width="32.402" height="30.4746" fill="white" transform="translate(179.598)"/>
</clipPath>
<clipPath id="clip2_36_32">
<rect width="32.402" height="30.4746" fill="white" transform="translate(135.698 0.525391)"/>
</clipPath>
<clipPath id="clip3_36_32">
<rect width="32.402" height="30.4746" fill="white" transform="translate(91.799 0.525391)"/>
</clipPath>
<clipPath id="clip4_36_32">
<rect width="32.402" height="30.4746" fill="white" transform="translate(47.8995 0.525391)"/>
</clipPath>
</defs>
</svg>
