<svg width="41" height="41" viewBox="0 0 41 41" fill="none" xmlns="http://www.w3.org/2000/svg">
<path d="M3.82179 2.92859H36.6672C38.7772 2.92859 40.489 4.63887 40.489 6.75037C40.489 8.86187 38.7787 10.5722 36.6672 10.5722H3.82179C1.71175 10.5722 0 8.86187 0 6.75037C0 4.63887 1.71029 2.92859 3.82179 2.92859Z" fill="#7F70FF"/>
<path d="M3.82179 16.6782H36.6672C38.7772 16.6782 40.489 18.3885 40.489 20.5C40.489 22.6115 38.7787 24.3218 36.6672 24.3218H3.82179C1.71175 24.3218 0 22.6115 0 20.5C0 18.3885 1.71029 16.6782 3.82179 16.6782Z" fill="#7F70FF"/>
<path d="M3.82179 30.4293H36.6672C38.7772 30.4293 40.489 32.1396 40.489 34.2511C40.489 36.3626 38.7787 38.0729 36.6672 38.0729H3.82179C1.71175 38.0729 0 36.3626 0 34.2511C0 32.1396 1.71029 30.4293 3.82179 30.4293Z" fill="#7F70FF"/>
</svg>
