<svg width="127" height="116" viewBox="0 0 127 116" fill="none" xmlns="http://www.w3.org/2000/svg">
<path d="M5.44046 1.07221C4.83341 1.21619 3.64821 1.87211 3.09175 2.36805C2.17394 3.19195 1.37177 4.55178 1.05379 5.83162C0.930933 6.32756 0.923706 8.20733 0.923706 50.1861C0.923706 91.805 0.930933 94.0447 1.05379 94.5327C1.35009 95.7245 1.76201 96.5804 2.43411 97.3883C3.24351 98.3722 4.24081 99.0441 5.40432 99.3881C5.89574 99.54 7.39169 99.54 63.5439 99.54H121.178L121.864 99.2841C123.866 98.5322 125.304 96.8684 125.882 94.6206C126.012 94.1167 126.02 92.7649 126.041 50.6661C126.063 17.4782 126.041 7.07146 125.976 6.55153C125.774 4.91174 124.972 3.35992 123.794 2.32005C123.237 1.83212 122.161 1.24818 121.503 1.08021C121.084 0.968224 114.796 0.952225 63.4717 0.96022C14.6402 0.96022 5.83793 0.984222 5.44046 1.07221ZM121.156 3.25594C121.749 3.43992 122.522 3.94386 122.927 4.4078C123.338 4.87174 123.714 5.59965 123.909 6.27157L124.068 6.8315V50.1861C124.068 86.5336 124.054 93.6128 123.967 93.9807C123.815 94.6846 123.447 95.4205 122.999 95.9565C122.486 96.5644 122.045 96.8844 121.358 97.1403L120.824 97.3403H63.4717H6.11978L5.58499 97.1403C4.90567 96.8844 4.45761 96.5644 3.95896 95.9645C3.52535 95.4525 3.2146 94.8366 3.02671 94.1487C2.9183 93.7488 2.91108 89.9972 2.91108 50.1941L2.9183 6.67152L3.07729 6.14359C3.5109 4.73576 4.51543 3.65589 5.76566 3.26394C6.17759 3.12795 9.46578 3.11996 63.4355 3.11996C118.894 3.11196 120.693 3.11996 121.156 3.25594Z" fill="white"/>
<path d="M12.9259 9.00331C11.5239 9.27528 10.1941 10.1312 9.30523 11.323C8.84994 11.9389 8.34407 13.0268 8.13449 13.8187L7.9755 14.4426L7.95382 49.8783C7.93937 74.7152 7.95382 85.5378 8.01164 86.0658C8.17063 87.6256 8.69096 88.8254 9.70993 89.9613C10.4615 90.8092 11.0613 91.2251 12.0586 91.6091L12.7452 91.8731L63.1883 91.8971C100.124 91.9131 113.747 91.8971 114.065 91.8331C116.031 91.4251 117.837 89.7373 118.546 87.6496C118.972 86.3857 118.943 88.9934 118.929 50.1182L118.907 14.5226L118.748 13.8827C118.083 11.275 116.247 9.42726 113.884 8.99532C112.995 8.83533 13.7642 8.84334 12.9259 9.00331ZM114.108 11.283C115.452 11.739 116.565 13.0668 116.84 14.5466C116.898 14.8506 116.92 24.3534 116.92 48.0385C116.92 66.2282 116.905 81.1144 116.883 81.1144C116.818 81.1144 114.014 79.3146 113.27 78.7947C110.683 76.9869 107.611 74.4912 105.66 72.6034C105.162 72.1235 104.085 71.0196 103.268 70.1558C101.541 68.324 101.172 67.964 100.471 67.4441C99.8209 66.9641 99.0476 66.6042 97.9853 66.2922C97.1976 66.0683 97.0747 66.0523 95.7089 66.0443C94.0611 66.0363 93.2517 66.1642 91.6618 66.6762C91.0476 66.8762 89.3493 67.5801 88.4098 68.028C85.4107 69.4598 83.893 69.8678 82.809 69.5558C81.8623 69.2839 81.3131 68.7799 80.5181 67.4441C79.8316 66.2842 79.3185 65.7163 78.6392 65.3403C77.8659 64.9084 77.1938 64.7724 76.1748 64.8204C75.1775 64.8604 74.5126 65.0604 73.089 65.7243C71.8026 66.3322 71.3545 66.4602 70.9571 66.3242C70.7909 66.2682 70.5668 66.1243 70.4729 66.0123C70.2416 65.7403 69.873 65.0364 69.873 64.8764C69.8803 64.8124 70.191 64.4685 70.5668 64.1165C71.8821 62.8926 73.2046 61.1009 73.8695 59.6291L74.0574 59.2211L74.65 59.1651C75.5822 59.0771 76.9987 58.7492 78.0538 58.3652C80.5832 57.4533 82.6139 56.0855 84.6013 53.9658C85.8949 52.5739 86.7404 51.4061 87.6437 49.7343C88.2942 48.5424 89.2192 46.2147 89.3637 45.4308C89.3926 45.2468 89.9491 44.6069 91.6546 42.7751C96.829 37.2238 99.026 34.7441 101.425 31.7605C103.861 28.7289 106.18 25.5693 108.218 22.5216C110.148 19.626 110.835 18.4741 111.377 17.2263C111.68 16.5144 111.745 16.2824 111.774 15.8025C111.825 14.9386 111.564 14.4746 110.863 14.1627C110.256 13.8987 108.818 14.5386 106.932 15.9145C103.89 18.1302 99.0765 22.2977 95.5282 25.7932C92.8037 28.4809 91.4089 29.9847 85.9093 36.128L83.5534 38.7596L82.6573 39.0796C79.1595 40.3274 75.6689 43.2871 73.6527 46.7027L73.1179 47.6065L72.7421 47.0626C72.2073 46.2707 70.9571 44.8709 70.1549 44.159C67.0185 41.3833 62.9425 39.6635 57.985 39.0236C56.7925 38.8716 53.3309 38.8956 52.0228 39.0716C48.6407 39.5115 45.5043 40.5594 42.9171 42.1032C42.1077 42.5832 40.5178 43.751 39.9541 44.279C39.3181 44.8709 38.3136 45.9907 37.8583 46.5987C37.1067 47.6145 36.3046 49.0544 36.0661 49.8223L35.9794 50.0942L35.5674 49.7583C32.6261 47.4066 30.9929 46.6147 29.0778 46.6067C27.3361 46.5987 26.0353 47.1266 24.6911 48.3824C24.3659 48.6784 23.2457 49.9583 22.1834 51.2381C18.57 55.6056 15.0722 59.2371 11.0469 62.8287L9.99901 63.7645L9.97733 39.3116C9.96287 17.2103 9.9701 14.8186 10.0785 14.3786C10.4109 12.9468 11.3938 11.803 12.7018 11.307L13.1788 11.1311L63.4123 11.1231C113.14 11.1231 113.66 11.1231 114.108 11.283ZM88.9012 39.4236L90.4044 41.0873L89.4577 42.0792L88.511 43.0711L87.0295 41.4313C86.2201 40.5354 85.5552 39.7675 85.5552 39.7195C85.5552 39.6475 87.2824 37.7758 87.3619 37.7678C87.3836 37.7598 88.0774 38.5117 88.9012 39.4236ZM84.3411 41.5753L84.9048 42.1992L82.8452 44.4789L80.7855 46.7666V47.1586C80.7855 48.0785 81.5516 48.6064 82.2236 48.1505C82.361 48.0625 83.3366 47.0386 84.3989 45.8788L86.3212 43.767L86.8705 44.3829L87.4197 44.9989L87.1885 45.7188C85.6997 50.2862 82.3971 54.1097 78.4223 55.8695C76.8036 56.5894 74.8884 57.0374 73.4359 57.0374H72.7638V56.6454C72.7638 56.4295 72.7999 55.8855 72.836 55.4296C73.4142 49.1024 77.3239 43.639 82.9536 41.2793C83.3727 41.1113 83.7268 40.9594 83.7485 40.9594C83.763 40.9594 84.0376 41.2393 84.3411 41.5753ZM58.7799 41.3513C63.0004 42.0392 66.5487 43.655 69.1937 46.0947C70.2344 47.0546 71.3907 48.5584 71.8893 49.6063L72.0628 49.9663L71.8026 50.7262C71.4629 51.742 71.0582 53.5898 70.9209 54.7417C70.7981 55.8295 70.7764 58.1172 70.892 58.4532C71.0004 58.7732 71.304 59.1011 71.5424 59.1571C71.6581 59.1891 71.752 59.2451 71.752 59.2931C71.752 59.4931 70.8631 60.7409 70.1332 61.5568L69.3455 62.4367L69.2877 62.1567C69.1215 61.3328 69.0564 59.3171 69.0998 56.0695C69.1359 52.8859 69.1287 52.6379 69.0058 52.4219C68.7384 51.926 68.0374 51.782 67.6038 52.126C67.5027 52.214 67.228 52.6939 66.9896 53.1978C65.4213 56.5654 63.1449 59.893 60.7673 62.2767C59.3942 63.6526 57.6887 65.1164 56.7419 65.7243L56.4312 65.9323L55.3327 65.1884C51.8277 62.8367 47.2098 59.4451 44.1818 57.0134C42.2739 55.4776 37.7571 51.654 37.6704 51.5101C37.6487 51.4701 37.7499 51.1341 37.8872 50.7502C39.4049 46.6387 44.0011 43.1111 49.638 41.7353C51.6254 41.2473 52.8973 41.1273 55.564 41.1593C57.3129 41.1833 57.9777 41.2233 58.7799 41.3513ZM30.487 49.0384C31.889 49.5743 33.5656 50.7901 36.9188 53.6778C39.7517 56.1175 42.9893 58.8052 44.1312 59.669C44.6298 60.037 44.6298 60.045 44.3624 60.6369C43.9866 61.4528 43.1194 61.7328 42.1149 61.3568C41.4934 61.1249 41.2332 60.9169 40.4527 60.061C39.6072 59.1251 38.9568 58.5892 38.0751 58.0852C37.2151 57.5973 36.6876 57.3973 35.712 57.2294C35.0543 57.1094 34.8375 57.1014 34.1437 57.1814C33.0886 57.3013 32.5322 57.4693 31.7878 57.8853C31.0796 58.2772 30.4003 58.8851 29.9739 59.5171C29.692 59.925 29.5475 60.229 28.991 61.5968C28.6875 62.3327 28.1383 62.9726 27.4951 63.3166C26.2159 64.0205 25.5366 63.7245 23.1735 61.4288C21.0777 59.3891 20.196 58.7572 19.1481 58.5492L18.6278 58.4532L20.5357 56.3255C21.5836 55.1576 23.1518 53.3418 24.019 52.294C24.879 51.2461 25.804 50.1982 26.0714 49.9663C26.6496 49.4463 27.3289 49.0624 27.9142 48.9104C28.5791 48.7424 29.8872 48.8064 30.487 49.0384Z" fill="white"/>
<path d="M4.73163 102.748C4.4787 102.804 3.9945 103.012 3.64761 103.196C3.14174 103.468 2.89603 103.668 2.39738 104.22C1.71806 104.972 1.43621 105.46 1.12546 106.42C0.923111 107.052 0.923111 107.084 0.930337 108.899C0.930337 110.675 0.937564 110.763 1.12546 111.379C1.39285 112.283 1.7831 112.971 2.3757 113.619C2.96107 114.259 3.46694 114.619 4.22576 114.923L4.75331 115.139L63.3554 115.163L121.965 115.179L122.543 114.979C123.887 114.531 124.921 113.539 125.549 112.099C125.94 111.203 126.055 110.491 126.055 108.947C126.055 107.044 125.867 106.164 125.217 105.092C124.595 104.052 123.685 103.276 122.579 102.844L122.117 102.66L63.6517 102.652C14.1048 102.636 5.11465 102.652 4.73163 102.748ZM51.8359 106.996C51.8359 109.059 51.8431 109.235 51.9805 109.475C52.0527 109.619 52.2045 109.795 52.3201 109.875C52.508 110.011 53.0356 110.019 63.4711 110.019C73.9066 110.019 74.4341 110.011 74.622 109.875C74.7376 109.795 74.8894 109.619 74.9617 109.475C75.099 109.235 75.1062 109.059 75.1062 106.996V104.78L98.4343 104.796L121.755 104.82L122.297 105.108C123.576 105.78 124.104 106.9 124.104 108.939C124.104 110.931 123.605 112.011 122.384 112.675L121.835 112.979H63.4783H5.11465L4.63769 112.731C3.82828 112.307 3.28627 111.635 3.02611 110.723C2.92493 110.379 2.90325 110.043 2.92493 108.764L2.94661 107.212L3.1851 106.684C3.5898 105.764 4.33416 105.108 5.22306 104.892C5.53381 104.812 10.7805 104.788 28.7318 104.788L51.8359 104.78V106.996Z" fill="white"/>
</svg>
